<?xml version="1.0" encoding="UTF-8"?>
<!DOCTYPE svg PUBLIC "-//W3C//DTD SVG 1.1//EN" "http://www.w3.org/Graphics/SVG/1.1/DTD/svg11.dtd">
<!-- Creator: CorelDRAW -->
<svg xmlns="http://www.w3.org/2000/svg" xml:space="preserve" width="6.72in" height="6.72in" style="shape-rendering:geometricPrecision; text-rendering:geometricPrecision; image-rendering:optimizeQuality; fill-rule:evenodd; clip-rule:evenodd"
viewBox="0 0 6.72 6.72"
 xmlns:xlink="http://www.w3.org/1999/xlink">
 <defs>
  <style type="text/css">
   <![CDATA[
    .fil1 {fill:white;fill-rule:nonzero}
    .fil0 {fill:url(#id0)}
   ]]>
  </style>
  <linearGradient id="id0" gradientUnits="userSpaceOnUse" x1="1.38953" y1="-0.0529488" x2="5.33047" y2="6.77295">
   <stop offset="0" style="stop-color:#444FF5"/>
   <stop offset="0.490196" style="stop-color:#21BFDB"/>
   <stop offset="1" style="stop-color:#1DABB6"/>
  </linearGradient>
 </defs>
 <g id="Layer_x0020_1">
  <metadata id="CorelCorpID_0Corel-Layer"/>
  <path class="fil0" d="M6.31603 1.65333c0.942567,1.63257 0.383209,3.72013 -1.24937,4.6627 -1.63257,0.942567 -3.72013,0.383209 -4.6627,-1.24937 -0.942567,-1.63257 -0.383209,-3.72013 1.24937,-4.6627 1.63257,-0.942567 3.72013,-0.383209 4.6627,1.24937z"/>
  <path class="fil1" d="M3.83345 1.42101c0.025,-0.0248583 0.0251102,-0.0652795 0.000251969,-0.0902756 -0.0248622,-0.0249961 -0.0652835,-0.0251102 -0.0902795,-0.000251969l-0.856886 0.856224c-0.0249961,0.0248622 -0.0251102,0.0652835 -0.000248031,0.0902795 0.0248583,0.0249961 0.0652795,0.0251102 0.0902795,0.000248031l0.856882 -0.856224z"/>
  <path class="fil1" d="M2.9226 4.81507l0.375579 0 0 -1.08857c0,-0.0353543 0.0286614,-0.0640197 0.0640197,-0.0640197l0.23222 0 -0.671819 -0.844791 -0.671827 0.844791 0.232224 0c0.0353583,0 0.0640197,0.0286654 0.0640197,0.0640197l0 1.08857 0.375583 0zm0.439598 0.128039l-0.439598 0 -0.439602 0c-0.0353543,0 -0.0640157,-0.0286654 -0.0640157,-0.0640197l0 -1.08857 -0.300756 0 0 -3.93701e-006c-0.0139803,1.1811e-005 -0.0280591,-0.0045315 -0.0398465,-0.0139094 -0.0276732,-0.0220039 -0.0322677,-0.0622835 -0.0102598,-0.0899528l9.84252e-005 7.87402e-005 0.801744 -1.00817c0.0043622,-0.00629921 0.00993701,-0.0119134 0.0166457,-0.0164724l0.000188976 -0.000125984 0.000283465 -0.000192913 0.000614173 -0.000401575 0.000570866 -0.000370079 0.000661417 -0.000409449 0.000759843 -0.000468504 0.000586614 -0.000346457 0.000826772 -0.000476378 0.000633858 -0.000350394 0.000771654 -0.00042126 0.000551181 -0.000291339 0.00092126 -0.000472441 0.000519685 -0.000255906 0.000893701 -0.000433071 0.000629921 -0.000287402 0.000791339 -0.000358268 0.000724409 -0.000311024 0.000681102 -0.000291339 0.000893701 -0.000358268 0.000527559 -0.000208661 0.000996063 -0.000370079 0.000464567 -0.000169291 0.00100787 -0.000346457 0.000507874 -0.000169291c0.00588976,-0.00194094 0.0119528,-0.00298031 0.0180079,-0.00316142l5.11811e-005 0c0.00146457,-4.33071e-005 0.00293307,-3.54331e-005 0.0043937,2.3622e-005l0.00042126 1.5748e-005 0.0011378 6.29921e-005 0.000311024 1.9685e-005 0.00120472 9.44882e-005 0.000401575 3.93701e-005 0.000968504 9.84252e-005 0.000681102 7.48031e-005 0.000807087 0.000102362 0.000759843 0.000106299 0.000712598 0.000106299 0.000952756 0.00015748 0.000370079 6.69291e-005c0.00997244,0.00176378 0.0195551,0.00588976 0.0278386,0.0122717l9.05512e-005 6.29921e-005 0.00114567 0.000909449 8.66142e-005 7.08661e-005 0.00110236 0.000917323 0.000125984 0.000106299c0.000755906,0.000645669 0.00149606,0.00131102 0.00222441,0.00199606l0.000200787 0.000192913 0.000937008 0.000905512 0.000192913 0.000192913 0.000929134 0.000937008 0.000208661 0.000220472 0.000901575 0.000964567 0.000216535 0.000244094 0.000799213 0.000893701 0.000314961 0.000370079c0.000543307,0.000625984 0.0010748,0.00126772 0.00159843,0.00192126l-7.87402e-006 7.87402e-006c0.000787402,0.000992126 0.00155512,0.00201181 0.00229134,0.00306299l0.79952 1.00537c0.0102362,0.0113504 0.0164724,0.026378 0.0164724,0.0428622 0,0.0353583 -0.0286654,0.0640197 -0.0640197,0.0640197l-0.300752 0 0 1.08857c0,0.0353543 -0.0286614,0.0640197 -0.0640157,0.0640197z"/>
  <path class="fil1" d="M1.52979 2.18585l2.91375 0 0.746665 -0.746087 -2.91375 0 -0.746665 0.746087zm2.94 0.128039l-3.09438 0c-0.0163937,0 -0.0327835,-0.00625591 -0.0452874,-0.0187677 -0.0249882,-0.0250079 -0.0249724,-0.0655472 3.54331e-005,-0.0905354l0.045252 0.0452835 -0.0450157 -0.0452638 0.871287 -0.87061c0.0117362,-0.0136378 0.029126,-0.0222677 0.0485315,-0.0222677l3.09438 0c0.0163937,0 0.0327835,0.00625591 0.0452874,0.0187677 0.0249882,0.0250079 0.0249724,0.0655472 -3.54331e-005,0.0905354l-0.045252 -0.0452874 0.0450157 0.0452638 -0.871287 0.870614c-0.0117362,0.0136339 -0.029126,0.0222677 -0.0485315,0.0222677z"/>
  <path class="fil1" d="M5.27819 1.53201l-0.744378 0.74437 0 2.91333 0.744378 -0.744374 0 -2.91332zm-0.853661 0.672598l0.872146 -0.872138c0.0116063,-0.011748 0.0277165,-0.0190276 0.0455354,-0.0190276 0.0353543,0 0.0640157,0.0286614 0.0640157,0.0640197l0 3.09438 0 0c0,0.0163858 -0.00624803,0.0327717 -0.018752,0.0452677l0 -3.93701e-006 -0.872146 0.872142c-0.0116063,0.0117441 -0.0277165,0.0190276 -0.0455354,0.0190276 -0.0353543,0 -0.0640157,-0.0286654 -0.0640157,-0.0640197l0 -3.09438 0 0c0,-0.0163819 0.00625197,-0.0327677 0.018752,-0.0452677l0 3.93701e-006z"/>
  <path class="fil1" d="M1.37541 2.18585l3.09438 0c0.0353583,0 0.0640197,0.0286654 0.0640197,0.0640197l0 3.09439c0,0.0353543 -0.0286614,0.0640157 -0.0640197,0.0640157l-3.09438 0c-0.0353543,0 -0.0640197,-0.0286614 -0.0640197,-0.0640157l0 -3.09439c0,-0.0353543 0.0286654,-0.0640197 0.0640197,-0.0640197zm3.03036 0.128039l-2.96634 0 0 2.96635 2.96634 0 0 -2.96635z"/>
 </g>
</svg>
